<svg width="172" height="180" viewBox="0 0 172 180" fill="none" xmlns="http://www.w3.org/2000/svg">
<path d="M62.6032 61.1499C58.0432 58.4317 54.3532 54.4331 49.7997 51.7043C37.4234 44.288 20.1851 48.2332 10.515 58.9422C0.844848 69.6511 -1.6884 85.6019 1.84409 99.5913C5.37658 113.581 14.3181 125.727 25.0109 135.415C46.2421 154.651 75.7953 165.213 104.147 161.09C132.498 156.967 158.69 137.233 168.082 110.167C173.14 95.5903 173.199 78.8721 166.045 65.2018C158.892 51.5307 143.896 41.6869 128.503 42.7499C119.193 43.3929 110.732 47.7033 102.611 51.9604C94.499 56.2126 86.4518 59.7653 77.7316 62.5757C72.4317 64.2825 67.4686 64.0499 62.6032 61.1499Z" fill="#EE262A" fill-opacity="0.1"/>
<path d="M140.802 30.7154H153.453C158.785 30.7154 163.147 26.3533 163.147 21.0219V19.0064C163.147 13.675 158.785 9.31287 153.453 9.31287H140.802C135.471 9.31287 131.109 13.675 131.109 19.0064V21.0219C131.109 26.3533 135.471 30.7154 140.802 30.7154Z" fill="#EE262A" fill-opacity="0.1"/>
<path d="M140.803 30.7153L146.236 38.0493V30.7153H140.803Z" fill="#EE262A" fill-opacity="0.1"/>
<path d="M99.9224 21.5388C99.7511 29.0311 99.5791 36.5743 98.7212 43.9979C98.5152 45.8518 98.2494 47.6968 97.9401 49.533C97.5967 51.6009 97.1767 53.6608 96.6783 55.7037C96.2146 57.6093 95.6742 59.5141 94.7218 61.2306C93.7775 62.9383 92.3792 64.4658 90.5851 65.2559C87.9848 66.3973 84.9467 65.8649 82.2947 64.8609C74.434 61.8914 68.2463 54.8539 66.3149 46.6839C64.8641 40.5567 65.8003 34.0515 66.7955 27.838C71.1552 23.9161 76.6223 20.4749 82.4061 19.4878C88.1908 18.5007 94.5077 19.2899 99.9224 21.5388Z" fill="#D47F6C"/>
<path d="M82.7732 37.7899C82.7945 38.2832 82.8151 38.7764 82.8364 39.2703" stroke="#25262B" stroke-width="2" stroke-miterlimit="10" stroke-linecap="round" stroke-linejoin="round"/>
<path d="M93.6025 37.8632C93.5772 38.3564 93.5513 38.8496 93.526 39.3429" stroke="#25262B" stroke-width="2" stroke-miterlimit="10" stroke-linecap="round" stroke-linejoin="round"/>
<path d="M80.0002 35.2232C80.2625 34.1203 81.3481 33.2723 82.481 33.2842C83.6146 33.2956 84.6816 34.1662 84.9219 35.2738" stroke="#25262B" stroke-miterlimit="10" stroke-linecap="round" stroke-linejoin="round"/>
<path d="M90.828 35.5853C90.7708 34.7553 91.1748 33.9086 91.8564 33.4321C92.5374 32.9548 93.4719 32.8649 94.232 33.2024C94.9922 33.5399 95.5513 34.294 95.6538 35.1194" stroke="#25262B" stroke-miterlimit="10" stroke-linecap="round" stroke-linejoin="round"/>
<path d="M67.9972 50.6436C66.0392 51.4183 63.699 50.6622 62.2231 49.1605C60.7473 47.6588 60.0356 45.5448 59.8102 43.451C59.6333 41.8096 59.7416 40.0914 60.467 38.6083C61.1924 37.1252 62.6198 35.92 64.2644 35.7786C65.9091 35.6372 67.6604 36.7738 67.9213 38.4039C68.5498 42.3153 68.8664 46.78 67.9972 50.6436Z" fill="#D47F6C"/>
<path d="M84.4929 72.5753C83.652 79.4755 81.4895 85.2593 77.8335 90.7087C68.8306 86.7262 61.3132 79.2945 57.6919 70.1551C60.8585 64.1047 63.1841 57.2821 64.1284 50.4764C65.2529 50.966 66.5138 51.1114 67.673 50.7511C67.8273 51.1114 67.9905 51.4636 68.1706 51.8149C71.0197 57.7191 76.1436 62.5336 82.2965 64.8592C82.7174 65.0224 83.1544 65.1686 83.5922 65.297C83.5236 66.945 83.6351 68.5929 83.9356 70.206C84.0721 71.0049 84.2611 71.795 84.4929 72.5753Z" fill="#D47F6C"/>
<path d="M89.694 36.5525C89.6738 39.1665 89.6528 41.7805 89.6326 44.3946C90.383 43.88 91.5309 44.2064 91.9929 44.9907C92.4558 45.7743 92.2523 46.8511 91.6165 47.5022C90.9808 48.1532 89.992 48.3916 89.0962 48.2308" stroke="#25262B" stroke-width="1.0624" stroke-miterlimit="10" stroke-linecap="round" stroke-linejoin="round"/>
<path d="M90.9923 53.3873C90.9261 53.8202 90.285 54.1117 89.5631 54.1748C88.7049 54.2496 87.943 54.0032 87.2541 53.741C86.8262 53.9852 86.3983 54.2299 85.9688 54.4733C85.4485 54.7683 84.832 55.0611 84.0447 54.9889C83.3243 54.9228 82.9248 54.5486 83.0118 54.1498C83.0995 53.7493 83.6006 53.3698 84.0154 53.0547C84.441 52.7312 84.9398 52.4287 85.5717 52.2348C86.2828 52.0164 87.0948 51.9669 87.8883 52.019C89.1852 52.1039 91.1378 52.4388 90.9923 53.3873Z" fill="white"/>
<path d="M75.1753 46.7938C75.1753 48.3392 77.2174 49.5913 79.7361 49.5913C82.2548 49.5913 84.2969 48.3384 84.2969 46.7938C84.2969 45.2485 82.2548 43.9957 79.7361 43.9957C77.2174 43.9957 75.1753 45.2485 75.1753 46.7938Z" fill="#BA6450"/>
<path d="M98.7214 43.998C98.5154 45.8519 98.2496 47.697 97.9402 49.5331C95.8376 49.2843 94.2583 48.1517 94.2583 46.7955C94.2591 45.2768 96.2414 44.032 98.7214 43.998Z" fill="#BA6450"/>
<path d="M68.4086 46.7219C67.5879 44.0198 65.6734 41.7014 63.162 40.4049C62.6717 40.1521 62.2371 40.892 62.729 41.1457C64.5474 42.0843 66.024 43.5901 66.9457 45.3995C66.1977 45.0691 65.3285 44.9657 64.5029 44.9754C63.9512 44.9819 63.9496 45.8398 64.5029 45.8333C65.6387 45.8204 66.9869 45.9739 67.6251 47.0515C67.8674 47.4642 68.5524 47.1961 68.4086 46.7219Z" fill="#BA6450"/>
<path d="M83.5915 65.2979C83.1537 65.1695 82.7159 65.0233 82.2958 64.8601C76.1429 62.5345 71.019 57.72 68.1699 51.8158C68.2725 55.0599 69.4317 58.338 71.0538 61.0675C72.9505 64.2341 75.7228 66.8521 79.0178 68.517C80.5712 69.2981 82.2272 69.8733 83.9357 70.2077C83.6344 68.5938 83.5229 66.9459 83.5915 65.2979Z" fill="#BA6450"/>
<path d="M109.483 9.84111C109.123 11.9519 107.896 13.8486 106.307 15.2824C104.72 16.7154 102.763 17.8399 100.764 18.621C101.751 18.8529 102.677 19.3594 103.321 20.1397C103.965 20.9119 104.291 21.9766 104.093 22.9629C103.861 24.0616 103.021 24.9622 102.025 25.4687C101.03 25.9841 99.8887 26.1554 98.7732 26.2151C95.6494 26.3694 92.3706 25.8031 89.599 24.3531C90.4658 24.8249 90.7057 26.0439 90.2857 26.9276C89.8567 27.8033 88.9124 28.3526 87.9511 28.5327C86.9898 28.7128 86.0027 28.5844 85.0334 28.4293C81.3514 27.8461 77.6703 26.867 74.6152 24.7215C74.9157 27.4163 74.3753 30.2056 73.0877 32.591C71.8776 34.8399 70.0237 36.7189 67.8096 37.9637C67.3378 36.5735 65.7586 35.6469 64.2649 35.7754C63.8102 35.8182 63.3635 35.9466 62.9434 36.1357C61.1412 32.377 60.0854 28.2661 59.8625 24.1035C59.7599 22.1301 59.8455 20.0961 60.5491 18.2333C61.2527 16.3794 62.6518 14.7145 64.5226 14.0627C66.4024 13.4108 68.762 14.0796 69.8436 15.7445C69.0366 13.4617 69.9979 10.7927 71.809 9.18761C73.6281 7.58252 76.1428 6.94758 78.5629 6.99928C80.9831 7.05905 83.3435 7.74569 85.6344 8.53571C86.5956 8.86206 87.7459 9.25627 88.1062 10.2006C88.6555 6.68182 90.6637 3.41187 93.5556 1.32695C94.3537 0.751797 95.2294 0.254199 96.1987 0.0740606C97.1689 -0.114964 98.2327 0.0482015 98.988 0.675051C100.044 1.54182 100.284 3.0524 100.215 4.41676C100.087 6.97424 99.1512 9.52284 97.4944 11.4712C99.2368 9.27404 101.485 7.48073 104.017 6.27954C105.381 5.62765 107.106 5.18094 108.341 6.05659C109.475 6.86357 109.715 8.46785 109.483 9.84111Z" fill="#E9A52D"/>
<path d="M71.2891 24.0899C71.0573 25.9486 70.5879 27.7758 69.9045 29.5198C69.5636 30.389 69.163 31.2356 68.713 32.0539C68.2671 32.8658 67.7994 33.7656 67.0344 34.3206C66.5918 34.6421 67.0199 35.3869 67.4674 35.0613C68.2429 34.4983 68.7494 33.7156 69.2227 32.8956C69.743 31.9949 70.1953 31.0579 70.5912 30.0958C71.3828 28.1708 71.8893 26.153 72.147 24.089C72.2156 23.543 71.357 23.5478 71.2891 24.0899Z" fill="#D18F19"/>
<path d="M64.5069 18.6195C62.9866 22.9444 62.817 27.67 64.0044 32.0967C64.1474 32.6299 64.9754 32.4037 64.8316 31.8689C63.6813 27.5812 63.8623 23.0349 65.3341 18.8481C65.5174 18.3254 64.6886 18.1009 64.5069 18.6195Z" fill="#D18F19"/>
<path d="M86.7837 20.294C86.4073 19.8885 85.8015 20.496 86.1771 20.9007C86.6206 21.3789 87.1416 21.9161 87.2135 22.5987C87.2749 23.1835 86.955 23.7538 86.5503 24.1505C85.5446 25.1344 83.9718 25.241 82.6567 25.0067C80.159 24.5624 77.3858 23.3208 76.2695 20.9023C76.0384 20.4015 75.2985 20.8369 75.5287 21.3353C76.2048 22.8006 77.4569 23.892 78.877 24.6174C80.3359 25.3621 82.0396 25.9373 83.6883 25.968C85.1859 25.9955 86.7902 25.4744 87.6368 24.1658C88.5617 22.7352 87.8064 21.3959 86.7837 20.294Z" fill="#D18F19"/>
<path d="M101.209 21.4783C100.749 20.1858 99.2885 19.5662 98.0962 19.1542C97.5727 18.9733 97.3481 19.8021 97.8675 19.9814C98.7779 20.2957 100.154 20.8013 100.431 21.8547C100.749 23.0656 98.8151 23.4016 98.0121 23.5042C95.7649 23.7894 93.5038 23.0979 91.5409 22.0429C91.0546 21.7812 90.6208 22.5219 91.1079 22.7837C93.5951 24.1206 96.5823 24.913 99.3684 24.0947C100.524 23.7555 101.687 22.8184 101.209 21.4783Z" fill="#D18F19"/>
<path d="M101.936 12.9463C101.052 12.0602 99.294 12.5376 98.2746 12.8785C97.3432 13.1895 96.4692 13.6314 95.6218 14.1217C95.827 13.6483 96.0241 13.1709 96.2107 12.6903C96.5572 11.7993 96.9861 10.8421 96.9764 9.86704C96.9692 9.16426 96.701 8.44692 96.1404 8.00182C95.4885 7.48403 94.6548 7.5624 93.9311 7.87583C92.4302 8.5253 91.3413 9.88723 90.5553 11.2766C89.6255 12.9205 88.9615 14.7275 88.5164 16.5588C88.3856 17.0952 89.2135 17.3238 89.3436 16.7874C89.7152 15.2623 90.2378 13.7768 90.943 12.3728C91.5343 11.1967 92.2694 10.0351 93.3293 9.22646C93.8446 8.83306 94.6726 8.2781 95.3496 8.52528C96.0661 8.78701 96.188 9.69902 96.0782 10.3477C95.9441 11.1385 95.6016 11.9108 95.3084 12.6531C94.9973 13.4423 94.6565 14.2186 94.2946 14.986C94.1241 15.3463 94.4901 15.8213 94.8818 15.5733C95.7478 15.024 96.6291 14.4892 97.5678 14.0716C98.5428 13.6378 99.7512 13.1935 100.835 13.3648C102.33 13.6015 100.487 15.2332 99.9693 15.6113C99.1623 16.201 98.2471 16.5903 97.2697 16.7923C96.7293 16.9037 96.9579 17.7317 97.4983 17.6203C98.752 17.361 99.9152 16.7955 100.893 15.9683C101.667 15.3132 102.94 13.952 101.936 12.9463Z" fill="#D18F19"/>
<path d="M84.7736 12.3583C82.5287 11.3211 80.0544 10.7751 77.5842 11.1354C75.4039 11.4528 73.3271 12.5086 71.8973 14.2001C71.5427 14.6194 72.1469 15.2293 72.504 14.8068C75.4589 11.3123 80.451 11.3018 84.3398 13.0991C84.839 13.3301 85.2752 12.5902 84.7736 12.3583Z" fill="#D18F19"/>
<path d="M109.878 171.886C96.9102 176.186 83.1962 178.143 69.5768 177.688C69.2424 177.679 68.916 177.671 68.5897 177.654C58.506 177.233 48.482 175.483 38.862 172.385C38.8022 168.995 38.4072 165.605 37.7376 162.258C37.5485 161.288 37.3426 160.336 37.0938 159.383V159.358C39.5309 154.783 41.4445 149.943 42.8008 144.948C43.3162 143.077 43.7532 141.181 44.1054 139.267C45.5126 139.284 46.9287 139.276 48.3447 139.233C48.6969 137.782 49.0225 136.323 49.3149 134.856C49.4005 134.478 49.4692 134.092 49.5378 133.715C49.8125 132.325 50.0524 130.934 50.2584 129.535C50.3868 128.72 50.4991 127.896 50.6017 127.072C50.7051 126.3 50.7907 125.528 50.8764 124.756C50.9709 123.854 51.0565 122.962 51.1252 122.061C51.1849 121.263 51.2455 120.456 51.2883 119.65C51.3142 119.332 51.3311 119.015 51.3481 118.697C51.4257 117.101 51.4596 115.505 51.4596 113.909C51.4596 113.222 51.4507 112.535 51.4337 111.849C51.4337 111.72 51.4337 111.591 51.4248 111.471C51.4079 110.759 51.382 110.055 51.3473 109.343C51.3303 108.948 51.3126 108.554 51.2875 108.167C51.2617 107.738 51.2358 107.309 51.2019 106.888C51.1672 106.356 51.1243 105.832 51.0735 105.301C51.0395 104.957 51.0137 104.623 50.9709 104.28C50.945 104.022 50.9192 103.773 50.8933 103.515C50.8505 103.103 50.7988 102.683 50.7471 102.271C50.6615 101.525 50.5581 100.778 50.4385 100.04C50.3529 99.4312 50.2584 98.8302 50.1469 98.2211C49.9926 97.2857 49.8125 96.3503 49.6146 95.4238C49.4773 94.7541 49.331 94.0852 49.1687 93.4156C49.1598 93.3639 49.1517 93.3122 49.1339 93.2613C48.9796 92.5916 48.8076 91.9309 48.6363 91.2701C49.0394 91.1239 49.4433 90.9784 49.8464 90.8322C50.1211 90.7288 50.4046 90.6263 50.6784 90.5317C51.6228 90.1796 52.5663 89.8104 53.5106 89.442C54.2053 89.1674 54.9097 88.8838 55.6044 88.5922C55.7247 88.5405 55.8362 88.4977 55.9566 88.446H55.9655C56.3346 88.2917 56.7038 88.1366 57.0721 87.9743C57.1836 87.9226 57.304 87.8797 57.4155 87.828C57.6901 87.7166 57.9648 87.5962 58.2394 87.4767C58.6514 87.2965 59.0545 87.1164 59.4584 86.9362C59.8873 86.7472 60.3082 86.559 60.7282 86.3611C61.2428 86.1293 61.7582 85.8974 62.2647 85.6486C62.5135 85.5371 62.7623 85.4168 63.003 85.2964C63.629 85.0048 64.247 84.7043 64.8649 84.3869C65.5176 84.0694 66.1695 83.743 66.8133 83.4086C70.0405 86.4378 73.7822 88.9267 77.8325 90.7119C81.4886 85.2625 83.651 79.4779 84.4919 72.5785C89.5124 74.3031 94.4472 76.7063 98.7641 79.8648C99.0048 80.0449 99.2447 80.217 99.4766 80.4052C99.6825 80.5595 99.8885 80.7227 100.095 80.877C101.863 82.2761 103.09 84.2414 103.545 86.4467C104.343 90.3169 105.072 94.1959 105.733 98.0927C105.793 98.3932 105.844 98.7018 105.887 99.0023C107.612 109.172 108.865 119.41 109.62 129.683C109.689 130.567 109.748 131.443 109.809 132.326V132.335C109.843 132.695 109.861 133.048 109.878 133.408C110.101 136.797 110.255 140.179 110.349 143.569C110.366 143.87 110.375 144.161 110.375 144.453C110.633 153.598 110.47 162.755 109.878 171.886Z" fill="#EE262A"/>
<path d="M122.916 110.475C123.105 107.409 123.951 104.385 125.381 101.666C127.955 100.06 131.014 99.0839 134.047 99.0338C132.666 104.392 128.256 109.026 122.916 110.475Z" fill="#D47F6C"/>
<path d="M127.083 110.319H140.015C141.548 110.319 143.726 109.189 144.88 107.795L167.86 80.0362C169.013 78.6427 168.706 77.5126 167.173 77.5126H154.241C152.708 77.5126 150.53 78.6427 149.376 80.0362L126.396 107.795C125.243 109.189 125.551 110.319 127.083 110.319Z" fill="#25262B"/>
<path d="M153.757 81.478C153.054 82.327 151.727 83.0161 150.793 83.0161C149.859 83.0161 149.671 82.3278 150.374 81.478C151.077 80.629 152.404 79.94 153.339 79.94C154.273 79.9408 154.46 80.629 153.757 81.478Z" fill="#636674"/>
<path d="M157.424 81.4781C156.932 82.0719 156.004 82.5541 155.351 82.5541C154.697 82.5541 154.566 82.0727 155.058 81.4781C155.55 80.8844 156.478 80.4022 157.132 80.4022C157.785 80.4022 157.916 80.8844 157.424 81.4781Z" fill="#636674"/>
<path d="M153.903 100.879C153.792 101.462 153.458 101.977 153.105 102.458C151.234 105.058 148.917 107.29 146.609 109.504C144.335 111.701 142.19 114.095 139.503 115.768C135.77 118.094 131.29 118.772 126.896 119.02C123.145 128.555 117.43 137.248 110.383 144.681C110.177 136.665 109.654 128.65 108.83 120.668C112.967 117.064 117.412 113.897 121.978 110.816C125.934 108.147 131.486 107.804 135.709 110.035C135.692 107.151 135.675 104.226 136.369 101.419C136.516 100.818 136.704 100.209 137.099 99.7375C137.494 99.2657 138.146 98.9563 138.738 99.1284C139.235 99.2746 139.605 99.7294 139.776 100.227C139.948 100.725 139.956 101.257 139.965 101.78C139.991 103.831 140.154 105.925 140.18 107.968C140.326 105.084 140.807 102.218 141.596 99.4458C141.742 98.9224 141.905 98.3989 142.231 97.97C142.557 97.5322 143.081 97.2147 143.612 97.2664C144.204 97.3262 144.676 97.8327 144.882 98.3909C145.088 98.9491 145.079 99.5581 145.062 100.15C145.027 101.935 144.934 103.926 144.899 105.711C146.787 103.883 148.675 102.047 150.563 100.21C150.949 99.8408 151.344 99.4636 151.833 99.2399C152.314 99.0169 152.923 98.9821 153.361 99.2826C153.852 99.6179 154.015 100.296 153.903 100.879Z" fill="#D47F6C"/>
<path d="M140.393 103.91C140.366 103.36 139.507 103.357 139.535 103.91C139.625 105.77 139.633 107.631 139.558 109.491C139.536 110.044 140.394 110.042 140.416 109.491C140.49 107.632 140.482 105.77 140.393 103.91Z" fill="#BA6450"/>
<path d="M144.919 103.394C144.675 103.394 144.505 103.591 144.49 103.823C144.412 105.091 144.373 106.361 144.374 107.632C144.375 108.184 145.233 108.185 145.232 107.632C145.23 106.361 145.269 105.091 145.347 103.823C145.363 103.591 145.141 103.394 144.919 103.394Z" fill="#BA6450"/>
<path d="M136.08 110.102C134.222 108.715 131.894 108.008 129.578 108.108C129.028 108.131 129.025 108.99 129.578 108.966C131.761 108.871 133.897 109.537 135.647 110.843C136.09 111.173 136.518 110.428 136.08 110.102Z" fill="#BA6450"/>
<path d="M37.0938 159.357C38.69 165.81 39.308 172.445 38.5696 179.052C33.2487 180.511 27.3784 180.314 22.2554 178.262C20.8046 164.48 21.1398 150.594 23.4655 136.948C30.2623 138.373 37.1625 139.172 44.1055 139.257C42.8098 146.261 40.4413 153.066 37.0938 159.357Z" fill="#D47F6C"/>
<path d="M37.4455 159.17C35.0003 157.783 32.1544 158.266 29.5444 158.824C29.0048 158.94 29.2334 159.768 29.7722 159.652C32.1439 159.144 34.7822 158.647 37.0117 159.912C37.4931 160.184 37.9261 159.443 37.4455 159.17Z" fill="#BA6450"/>
<path d="M66.8136 83.4062C66.0155 83.8182 65.2262 84.2213 64.4193 84.6074C63.9475 84.8481 63.4749 85.0711 63.0032 85.294C62.7544 85.4144 62.5137 85.534 62.2649 85.6462C61.7584 85.895 61.2438 86.1269 60.7284 86.3587C60.2995 86.5558 59.8786 86.7448 59.4586 86.9339C59.0555 87.1229 58.6516 87.2941 58.2396 87.4743C57.8535 87.6455 57.4674 87.8176 57.0724 87.9719C56.969 88.0236 56.8664 88.0664 56.7638 88.1092C56.3777 88.2724 55.9915 88.4355 55.6054 88.5898C53.9664 89.2676 52.3274 89.9114 50.6795 90.5294C50.4048 90.6239 50.1221 90.7265 49.8474 90.8299C49.4443 90.9761 49.0404 91.1215 48.6374 91.2677C48.9976 92.6409 49.324 94.0311 49.6156 95.4214C49.8046 96.3479 49.9848 97.2833 50.1479 98.2188C50.2255 98.6736 50.3022 99.1203 50.3709 99.575C50.3967 99.7213 50.4226 99.8836 50.4395 100.039C50.551 100.777 50.6544 101.532 50.7481 102.27C50.7651 102.372 50.7829 102.485 50.7909 102.587C50.8426 103.016 50.8943 103.454 50.9372 103.883C51.0406 104.835 51.1262 105.78 51.1948 106.732C51.2288 107.213 51.2635 107.693 51.2893 108.165C51.5042 111.667 51.5123 115.185 51.3491 118.696C51.3322 119.013 51.3144 119.331 51.2893 119.648C51.2118 121.038 51.1092 122.428 50.963 123.819C50.9371 124.127 50.9113 124.445 50.8774 124.754C50.7917 125.526 50.7061 126.299 50.6027 127.071C50.5001 127.895 50.3878 128.719 50.2594 129.534C50.0534 130.933 49.8135 132.323 49.5389 133.713C49.4702 134.099 49.3926 134.477 49.3159 134.855C49.0243 136.322 48.6979 137.781 48.3457 139.231C47.3158 139.265 46.2859 139.274 45.2648 139.274C36.4251 139.265 27.6549 138.098 19.064 135.936C19.1843 134.631 19.3128 133.335 19.4671 132.04C19.501 131.748 19.5357 131.447 19.5696 131.156C21.123 118.309 24.3066 105.65 29.0354 93.6095C30.1081 90.8888 31.2754 88.1601 32.7682 85.6543C32.9144 85.4055 33.0687 85.1567 33.223 84.916C33.9436 83.7916 34.7336 82.7107 35.6173 81.7066C38.8784 77.9988 43.1266 75.493 47.7181 73.5794C48.0267 73.4421 48.3441 73.3136 48.6624 73.1933C51.606 72.009 54.67 71.0478 57.6903 70.1552C59.6823 75.1845 62.857 79.7073 66.8136 83.4062Z" fill="#EE262A"/>
<path d="M110.375 144.45C108.753 144.973 107.251 145.875 106.041 147.076C104.995 148.114 104.196 149.359 103.699 150.749C103.107 152.431 102.841 154.242 101.956 155.804C101.261 157.04 100.145 158.181 98.7292 158.508C96.9788 158.911 95.3478 157.907 93.7605 157.323C90.3023 156.054 86.5687 155.47 82.8956 155.865C76.674 156.525 70.5033 160.473 68.4434 166.592C67.4821 169.467 67.4991 172.651 68.5209 175.509C68.7956 176.281 69.1559 177.01 69.5767 177.688C69.2423 177.679 68.9159 177.671 68.5896 177.654C66.4869 173.844 66.3326 169.012 68.1865 164.935C70.9581 158.859 77.4382 155.289 83.9434 154.92C87.7279 154.697 91.5552 155.47 95.057 156.912C95.9577 157.289 96.8939 157.752 97.8891 157.744C98.7301 157.744 99.5023 157.357 100.112 156.791C101.477 155.529 101.931 153.719 102.421 151.994C102.867 150.406 103.434 148.913 104.446 147.6C105.322 146.45 106.428 145.48 107.673 144.734C108.514 144.236 109.416 143.841 110.351 143.567C110.367 143.866 110.375 144.158 110.375 144.45Z" fill="#EE262A"/>
<path d="M109.877 133.405C106.951 135.945 103.664 138.15 99.8963 139.129C97.6393 139.721 95.1505 139.815 93.013 138.768C91.3134 137.928 89.8723 136.339 89.5549 134.426C88.8941 130.452 93.4509 126.076 89.8384 122.642C88.0879 120.978 85.6072 120.634 83.2904 120.532C81.0334 120.437 78.7845 120.437 76.5792 119.88C74.6656 119.399 72.7947 118.532 71.4126 117.09C69.9965 115.615 69.2671 113.649 69.1467 111.615C68.9149 107.642 70.9061 103.814 73.9612 101.351C76.8709 98.9999 80.6893 97.73 84.431 98.0386C86.499 98.2099 88.3617 98.9223 90.2156 99.8069C92.387 100.837 94.5753 101.935 97.0383 101.806C100.308 101.634 103.037 99.8755 105.732 98.0903C105.792 98.3908 105.843 98.6994 105.886 98.9999C102.333 101.283 98.3938 103.531 94.043 102.322C91.8547 101.712 89.9232 100.477 87.8124 99.6784C86.0789 99.0265 84.2509 98.76 82.4059 98.8803C78.7926 99.1291 75.2827 100.846 72.8884 103.566C70.3568 106.441 69.0352 110.921 70.709 114.552C72.4853 118.405 77.0171 119.435 80.8702 119.598C83.2129 119.701 85.6847 119.589 87.9078 120.465C89.5985 121.125 91.1608 122.335 91.8296 124.078C93.3313 128.009 88.7834 131.862 90.8853 135.663C93.2966 140.032 99.2015 138.865 102.892 137.114C105.44 135.895 107.706 134.204 109.809 132.334C109.843 132.692 109.86 133.044 109.877 133.405Z" fill="#EE262A"/>
<path d="M80.579 141.652C79.7551 143.644 78.4424 145.394 76.683 146.656C74.7605 148.029 72.4518 148.724 70.2296 149.453C67.887 150.225 65.6211 151.109 63.6985 152.714C61.8535 154.259 60.532 156.198 59.5279 158.37C58.6014 160.387 57.8719 162.523 56.6101 164.359C55.3661 166.153 53.6576 167.475 51.5469 168.075C47.1355 169.354 42.6215 167.474 39.4978 164.325C38.854 163.673 38.2708 162.986 37.7384 162.257C37.5841 161.476 37.421 160.703 37.2319 159.931C38.5624 162.18 40.2442 164.196 42.4495 165.664C45.9941 168.016 51.1341 168.556 54.4727 165.527C56.052 164.094 56.9704 162.119 57.8024 160.198C58.6603 158.215 59.4843 156.215 60.8147 154.491C62.1791 152.714 63.9215 151.246 65.9119 150.225C67.929 149.204 70.1254 148.629 72.245 147.874C74.3647 147.119 76.3898 146.123 77.9004 144.416C79.2995 142.82 80.1663 140.794 80.5354 138.718C81.3335 134.187 79.4885 129.629 76.6475 126.154C71.2579 119.58 61.8778 116.113 53.6221 118.73C52.824 118.979 52.0429 119.288 51.2876 119.649C51.3134 119.331 51.3304 119.014 51.3474 118.696C53.0292 117.95 54.7974 117.427 56.6424 117.178C65.5508 115.993 74.9479 120.791 79.3504 128.592C81.592 132.564 82.3465 137.352 80.579 141.652Z" fill="#EE262A"/>
<path d="M99.4765 80.402C97.8633 84.8045 94.7477 88.5631 90.182 90.2716C88.6117 90.8637 86.9896 91.0697 85.3159 91.1295C83.5823 91.1893 81.8916 91.258 80.2356 91.8073C77.5319 92.691 75.1893 94.3987 72.8548 95.9609C70.5381 97.5143 68.109 99.0589 65.3544 99.6687C62.179 100.364 58.8751 99.634 56.1375 97.9441C53.3829 96.2445 51.3061 93.7128 49.8472 90.8298C48.3972 87.9549 47.5474 84.7277 47.2558 81.621C47.007 78.935 47.1613 76.2144 47.7195 73.5793C48.028 73.442 48.3455 73.3136 48.6638 73.1932C47.8826 76.6344 47.78 80.2388 48.4061 83.7059C48.8181 86.0146 49.5733 88.3741 50.68 90.5285C52.4733 94.0384 55.2198 97.0167 58.9785 98.3722C61.8534 99.4102 64.8488 99.239 67.6292 98.0119C70.101 96.9222 72.2805 95.2743 74.5375 93.8066C76.7686 92.3477 79.1629 90.9744 81.8238 90.5196C83.609 90.2191 85.4281 90.3653 87.2215 90.1335C88.6892 89.9445 90.1134 89.4727 91.418 88.7861C95.0652 86.8636 97.4683 83.5944 98.764 79.8608C99.0048 80.0417 99.2447 80.2138 99.4765 80.402Z" fill="#EE262A"/>
<path d="M43.4186 102.338C43.3241 104.732 42.2255 106.843 40.8441 108.748C39.4967 110.61 37.9094 112.31 36.7244 114.301C36.1411 115.296 35.6686 116.361 35.4367 117.502C35.1451 118.978 35.2647 120.498 35.3253 121.991C35.377 123.449 35.377 124.943 34.9391 126.35C34.5619 127.534 33.8922 128.599 33.0513 129.5C31.2152 131.456 28.6319 132.529 25.9968 132.821C23.731 133.07 21.5346 132.753 19.4658 132.04C19.4997 131.749 19.5345 131.448 19.5684 131.157C22.3149 132.144 25.2585 132.409 28.2021 131.491C30.5706 130.753 32.7759 129.148 33.8317 126.849C35.0328 124.205 34.1919 121.219 34.4496 118.43C34.8616 113.855 38.5177 110.878 40.8433 107.23C42.2424 105.05 42.8685 102.691 42.3878 100.098C41.9241 97.5321 40.7827 95.0691 39.4184 92.8638C37.6848 90.0575 35.4109 87.6034 32.767 85.655C32.9132 85.4062 33.0675 85.1574 33.2218 84.9167C36.5345 87.3538 39.2891 90.564 41.1689 94.2282C42.4403 96.6992 43.522 99.5144 43.4186 102.338Z" fill="#EE262A"/>
<path d="M54.3723 101.592C53.8626 102.519 53.3375 103.436 52.7963 104.344C52.537 104.779 52.2777 105.214 52.007 105.642C51.8778 105.847 51.7381 106.049 51.5838 106.239C51.3947 103.866 51.1193 101.525 50.7517 99.2252C50.7146 98.9918 50.4965 98.8367 50.2598 98.869C50.0263 98.907 49.8664 99.1275 49.9044 99.361C51.8907 111.779 51.2332 125.414 48.0044 138.811C39.9596 139.008 31.7314 138.249 23.5525 136.531C23.323 136.478 23.0928 136.631 23.0444 136.863C22.9959 137.095 23.1437 137.322 23.3764 137.371C30.754 138.919 38.1687 139.701 45.4623 139.701C46.4292 139.701 47.3945 139.688 48.3566 139.66C48.5497 139.655 48.7153 139.52 48.7613 139.332C51.3842 128.585 52.3576 117.679 51.6597 107.346C52.4408 106.714 52.9239 105.8 53.4328 104.949C54.0104 103.985 54.5702 103.009 55.1122 102.024C55.3796 101.541 54.6388 101.108 54.3723 101.592Z" fill="#B00A0E"/>
<path d="M87.8482 74.9607C87.1777 78.9472 86.0719 82.8536 84.5395 86.5945C83.7761 88.4589 82.9013 90.2789 81.9311 92.0439C81.4989 92.8291 81.0845 93.7872 80.4221 94.4092C79.6418 95.1418 78.5844 94.7315 77.6886 94.4625C71.2561 92.5311 65.4876 88.6011 61.1869 83.4603C58.7627 80.562 56.8151 77.2597 55.4823 73.7223C55.2892 73.2102 54.4596 73.4323 54.6551 73.9501C57.1391 80.545 61.6482 86.2674 67.3868 90.3427C70.2544 92.3792 73.4283 93.9899 76.775 95.0756C77.6199 95.3495 78.5594 95.7234 79.4601 95.6927C80.3882 95.6612 81.053 95.0998 81.5636 94.3696C82.7381 92.6894 83.6364 90.7273 84.4845 88.8677C86.4701 84.5113 87.8829 79.9109 88.6762 75.1893C88.7667 74.6489 87.9395 74.4162 87.8482 74.9607Z" fill="#B00A0E"/>
<path d="M98.7887 112.955C94.7021 119.306 89.7463 125.079 84.1168 130.113C78.5098 135.127 72.2381 139.395 65.5165 142.771C61.7069 144.684 57.7544 146.3 53.6968 147.606C53.1734 147.775 53.3971 148.603 53.9246 148.433C61.1818 146.098 68.1127 142.771 74.4854 138.588C80.8565 134.405 86.6815 129.383 91.7351 123.676C94.5906 120.453 97.1982 117.01 99.5287 113.388C99.8292 112.921 99.0868 112.491 98.7887 112.955Z" fill="#B00A0E"/>
<path d="M98.4482 142.359C91.7935 148.399 83.2576 151.742 74.6594 153.932C72.1932 154.561 69.7052 155.1 67.2075 155.59C66.6662 155.697 66.8957 156.524 67.4353 156.418C76.2709 154.684 85.2205 152.315 92.9519 147.544C95.1192 146.206 97.1678 144.678 99.0548 142.966C99.4652 142.594 98.8561 141.988 98.4482 142.359Z" fill="#B00A0E"/>
<path opacity="0.15" d="M110.376 144.45C110.376 144.158 110.367 143.866 110.35 143.566C110.255 140.176 110.101 136.795 109.878 133.405C109.861 133.044 109.844 132.692 109.809 132.332V132.323C109.749 131.439 109.689 130.564 109.62 129.68C104.403 135.498 98.2578 140.485 91.3406 144.149C80.7334 149.788 68.2813 152.078 56.4123 149.873C53.0737 149.255 49.7868 148.294 46.6719 146.947C45.3415 146.371 44.0369 145.72 42.8018 144.947C41.4463 149.942 39.5318 154.782 37.0947 159.357V159.383C37.3435 160.335 37.5495 161.287 37.7385 162.258C38.4082 165.604 38.8024 168.995 38.863 172.384C48.483 175.482 58.507 177.233 68.5907 177.653C68.917 177.67 69.2426 177.679 69.5778 177.687C83.1972 178.142 96.9112 176.186 109.879 171.886C110.47 162.755 110.633 153.598 110.376 144.45Z" fill="#522840"/>
</svg>
