<svg width="129" height="150" viewBox="0 0 129 150" fill="none" xmlns="http://www.w3.org/2000/svg">
<path d="M88.4482 48.8012C99.073 54.8285 110.695 59.8706 118.729 69.0722C124.881 76.1198 128.48 85.3514 128.718 94.7034C128.957 104.055 125.834 113.459 120.049 120.811C111.078 132.213 96.3971 138.057 81.9224 139.035C60.6564 140.473 39.0449 132.055 23.9019 117.054C8.75824 102.055 0.173672 80.8058 0.0026064 59.4918C-0.0859218 48.485 2.06471 37.2466 7.75781 27.826C13.4509 18.4054 22.9827 11.0024 33.8723 9.40086C43.6031 7.96976 52.8819 11.6813 59.5854 18.6677C65.4542 24.7841 68.0175 32.8835 74.3097 38.7669C78.5424 42.7234 83.4214 45.9497 88.4482 48.8012Z" fill="#59AA74" fill-opacity="0.1"/>
<path d="M54.9972 29.5673C56.0023 33.6742 58.4518 37.4151 61.8132 39.9844C65.1746 42.547 69.4279 43.9249 73.6547 43.8117C74.9992 43.7784 76.417 43.5654 77.4487 42.7068C78.5536 41.7882 79.0063 40.3238 79.3457 38.9327C79.9115 36.6429 80.3375 34.3199 80.6371 31.9836C80.8101 30.5724 80.9432 29.1613 81.0298 27.7435C81.3559 22.6715 81.123 17.5528 80.484 12.5074C76.3904 10.8566 71.4514 10.0911 67.0383 10.1843C64.7286 10.2376 62.3923 10.3973 60.1757 11.0563C57.9592 11.7219 55.8891 12.94 54.478 14.7705C54.5179 19.6695 53.8323 24.8081 54.9972 29.5673Z" fill="#D47F6C"/>
<path d="M53.6792 53.1836C55.7294 55.6731 58.1656 57.863 61.1742 59.0212C64.1828 60.1727 67.6108 60.3524 70.6327 59.2342C73.6547 58.1093 76.204 55.4933 77.1226 52.3982C76.61 51.2866 76.1641 50.1417 75.798 48.9769C75.2522 47.2729 74.8661 45.5156 74.6598 43.7451C74.3203 43.785 73.9875 43.805 73.6547 43.8116C69.4279 43.9248 65.1746 42.5469 61.8132 39.9843C60.4287 38.9193 59.1906 37.6612 58.1589 36.2501C56.9541 34.6327 56.0156 32.8222 55.3899 30.9118C55.3832 30.9118 55.3832 30.9118 55.3766 30.9052C55.8958 38.1871 55.9091 46.2345 53.6792 53.1836Z" fill="#D47F6C"/>
<path d="M56.0668 30.86C54.1544 31.1002 52.1429 30.3002 50.9175 28.8125C49.6921 27.3248 49.2927 25.1975 49.8951 23.3663C50.1407 22.6195 50.568 21.8966 51.2403 21.4886C52.0377 21.0047 53.0761 21.0413 53.9321 21.4121C54.7881 21.7828 55.4843 22.4491 56.0714 23.1733L56.0668 30.86Z" fill="#D47F6C"/>
<path d="M51.0234 16.1618C51.3496 17.8258 51.8687 19.5099 52.4345 21.134C52.9404 21.1074 53.4662 21.2072 53.9322 21.4135C54.7642 21.7663 55.4365 22.412 56.0156 23.1042C58.3453 20.5216 59.8163 17.1669 60.1225 13.6989C60.3222 11.5024 58.2721 9.26588 56.5348 7.91466C55.8492 7.38882 55.0438 6.94285 54.1851 6.96947C53.3997 7.00275 52.6675 7.43541 52.155 8.03447C51.6424 8.62688 51.3296 9.37238 51.1166 10.1312C50.5708 12.0815 50.6373 14.1715 51.0234 16.1618Z" fill="#25262B"/>
<path d="M59.339 12.9127C61.4564 14.7811 64.1309 15.9546 66.8979 16.5184C69.6649 17.0822 72.5264 17.0583 75.33 16.7234C77.3901 16.4778 79.4909 16.0418 81.2148 14.887C82.9455 13.7275 84.1675 11.911 84.8811 9.95403C85.5946 7.9971 85.8316 5.89638 85.8889 3.81364C83.2323 5.69736 79.5854 6.31373 76.445 5.45174C73.9296 4.76149 71.755 3.21458 69.4772 1.9439C67.1994 0.673221 64.5975 -0.360495 62.0335 0.120087C60.1671 0.46954 58.4817 1.63971 57.4493 3.23322C56.417 4.82672 56.0369 6.81761 56.3491 8.69068C56.6293 10.3787 58.0557 11.7798 59.339 12.9127Z" fill="#25262B"/>
<path d="M81.1296 25.7599C83.426 21.9858 83.9386 17.1733 82.4941 12.9998C81.8751 13.1396 81.2095 13.346 80.6237 13.6521C81.0764 17.6659 81.276 21.7262 81.1296 25.7599Z" fill="#25262B"/>
<path d="M73.158 22.2408C73.2565 24.1319 73.3544 26.0222 73.4529 27.9133C73.9927 27.4041 74.9252 27.3888 75.481 27.88C76.0368 28.3712 76.136 29.2991 75.6967 29.8968C75.2574 30.4946 74.3422 30.677 73.7072 30.2936" stroke="#25262B" stroke-miterlimit="10" stroke-linecap="round" stroke-linejoin="round"/>
<path d="M66.9266 22.9984C66.9479 23.4916 66.9685 23.9848 66.9898 24.4787" stroke="#25262B" stroke-width="2" stroke-miterlimit="10" stroke-linecap="round" stroke-linejoin="round"/>
<path d="M77.7556 23.0716C77.7303 23.5648 77.7044 24.0581 77.6791 24.5513" stroke="#25262B" stroke-width="2" stroke-miterlimit="10" stroke-linecap="round" stroke-linejoin="round"/>
<path d="M64.1534 20.4316C64.4157 19.3287 65.5013 18.4807 66.6342 18.4927C67.7678 18.504 68.8348 19.3746 69.0751 20.4822" stroke="#25262B" stroke-miterlimit="10" stroke-linecap="round" stroke-linejoin="round"/>
<path d="M74.9813 20.7938C74.924 19.9637 75.3281 19.117 76.0097 18.6405C76.6906 18.1632 77.6251 18.0733 78.3853 18.4108C79.1454 18.7483 79.7045 19.5024 79.807 20.3278" stroke="#25262B" stroke-miterlimit="10" stroke-linecap="round" stroke-linejoin="round"/>
<path d="M68.2904 33.7315C68.4289 33.1324 68.9088 32.7343 69.5125 32.6651C70.923 32.5047 72.0053 33.569 72.7055 34.6886C73.2107 34.5076 73.7658 34.3724 74.2624 34.5156C74.8674 34.69 75.2009 35.2591 75.0751 35.8741C74.8102 37.1727 73.0922 37.612 71.972 37.4576C70.6973 37.2819 69.4892 36.4312 68.7257 35.4155C68.3623 34.9309 68.1506 34.3365 68.2904 33.7315Z" fill="white"/>
<path d="M67.9176 29.8382C67.9176 31.0297 66.4918 31.9955 64.7339 31.9955C62.9753 31.9955 61.5502 31.0297 61.5502 29.8382C61.5502 28.6467 62.976 27.6809 64.7339 27.6809C66.4918 27.6809 67.9176 28.6467 67.9176 29.8382Z" fill="#BA6450"/>
<path d="M77.1226 29.8401C77.1226 31.0316 78.547 31.9968 80.3043 31.9968C80.4174 31.9968 80.5306 31.9901 80.6371 31.9835C80.8101 30.5723 80.9433 29.1612 81.0298 27.7434C80.7968 27.7035 80.5505 27.6835 80.3043 27.6835C78.547 27.6835 77.1226 28.6487 77.1226 29.8401Z" fill="#BA6450"/>
<path d="M52.621 23.9647C54.2291 24.9172 55.4459 26.4462 56.0216 28.2227C56.1308 28.5595 55.6995 28.7512 55.4652 28.5462C54.6651 27.846 53.7106 27.2076 52.6203 27.1258C52.1956 27.0938 52.1923 26.4282 52.6203 26.4601C53.4603 26.5234 54.2178 26.8462 54.9067 27.2922C54.3043 26.1593 53.3951 25.1974 52.2848 24.5398C51.9167 24.3215 52.2509 23.7457 52.621 23.9647Z" fill="#BA6450"/>
<path d="M58.1589 36.2501C58.931 39.9443 61.274 43.2991 64.3758 45.4956C67.6773 47.832 71.7443 48.9303 75.7979 48.9769C75.2521 47.2729 74.8661 45.5156 74.6597 43.745C74.3203 43.785 73.9874 43.805 73.6546 43.8116C69.4279 43.9248 65.1746 42.5469 61.8131 39.9843C60.4286 38.9193 59.1906 37.6612 58.1589 36.2501Z" fill="#BA6450"/>
<path d="M61.7533 11.3718C64.5808 13.1317 67.891 14.0809 71.1759 14.5102C74.305 14.9189 77.6517 14.6953 80.2922 12.8029C81.5496 11.9016 82.5554 10.6509 83.0353 9.17057C83.1671 8.7652 83.8101 8.93826 83.677 9.34762C82.773 12.1359 80.259 14.0869 77.5026 14.8677C74.06 15.8435 70.2566 15.2531 66.8746 14.2979C64.9616 13.7581 63.1078 12.9979 61.4171 11.9462C61.0543 11.7206 61.3878 11.1441 61.7533 11.3718Z" fill="#3C3C40"/>
<path d="M58.5503 4.08189C60.1685 1.61109 63.8361 2.28869 66.1551 3.1387C67.6654 3.6925 69.0958 4.43933 70.6028 5.00178C72.1724 5.5882 73.8085 5.86377 75.4645 6.07677C75.8832 6.13068 75.8885 6.79697 75.4645 6.74239C73.9616 6.54936 72.4566 6.33237 71.0142 5.85179C69.5797 5.37387 68.2272 4.6916 66.8321 4.1145C65.4655 3.54939 64.0171 3.06481 62.5248 3.03752C61.2834 3.01489 59.8523 3.30777 59.1254 4.41736C58.8911 4.7748 58.3147 4.44133 58.5503 4.08189Z" fill="#3C3C40"/>
<path d="M59.0743 8.96764C59.6826 7.95921 60.8102 7.46931 61.9185 7.22237C63.1938 6.93748 64.5111 6.97742 65.7917 7.20639C68.5774 7.70428 70.9683 9.29046 73.6947 9.95676C75.0652 10.2916 77.0601 10.5112 78.1704 9.42625C78.4766 9.12672 78.9478 9.59665 78.641 9.89685C77.7637 10.7542 76.4238 10.9266 75.2483 10.864C73.8871 10.7908 72.5811 10.3708 71.3271 9.86157C68.7864 8.82985 66.293 7.58513 63.474 7.6903C62.1481 7.73956 60.3942 8.06904 59.6493 9.30378C59.4284 9.66987 58.8526 9.33573 59.0743 8.96764Z" fill="#3C3C40"/>
<path d="M55.8359 19.8612C57.1185 18.0959 57.8401 15.9833 57.884 13.8007C57.8927 13.3727 58.5583 13.3713 58.5497 13.8007C58.5037 16.0931 57.7589 18.3409 56.4103 20.1973C56.1614 20.5401 55.5836 20.2086 55.8359 19.8612Z" fill="#3C3C40"/>
<path d="M54.2177 11.1747C54.3708 10.78 55.0151 10.9517 54.8594 11.3518C53.9089 13.7979 53.5867 16.4558 53.9661 19.0557C54.0273 19.4751 53.3857 19.6554 53.3245 19.2328C52.9277 16.513 53.2213 13.7394 54.2177 11.1747Z" fill="#3C3C40"/>
<path d="M26.0758 107.645C26.1091 107.865 26.1424 108.078 26.1756 108.291C26.4286 109.709 26.8679 111.073 27.6001 112.318C29.9631 116.318 35.4478 118.122 39.7211 116.312C39.6013 117.017 39.4882 117.73 39.375 118.435C39.1154 120.106 38.8824 121.776 38.6694 123.454C38.6428 123.667 38.6162 123.887 38.5896 124.1C38.1037 127.993 37.7642 131.887 37.5778 135.808C37.5711 136.034 37.5578 136.267 37.5512 136.493C37.4647 138.464 37.4247 140.441 37.4247 142.431C42.9561 146.198 49.3727 148.255 55.9957 149.22C62.612 150.185 69.3414 150.086 76.0243 149.813C84.2648 149.473 92.8314 148.781 99.9402 144.601C100.466 141.865 100.892 139.096 101.225 136.314C101.252 136.087 101.278 135.861 101.311 135.628C101.757 131.748 102.03 127.834 102.137 123.926C102.143 123.694 102.15 123.467 102.157 123.241C102.157 123.128 102.163 123.008 102.163 122.895C102.223 120.232 102.203 117.583 102.117 114.941C105.558 115.806 109.119 113.237 111.023 110.235C111.103 110.108 111.176 109.988 111.249 109.862C111.369 109.662 111.482 109.462 111.582 109.256C113.046 106.467 113.546 103.245 114.018 100.104C114.165 99.1452 114.304 98.1867 114.451 97.2282C114.484 97.0152 114.511 96.7956 114.544 96.5826C115.176 92.4025 115.802 88.2223 116.428 84.0422C116.461 83.8159 116.494 83.5962 116.528 83.3699C117 80.2015 117.479 77.0398 117.952 73.8714C115.023 74.6103 111.482 74.1244 109.066 72.3139C107.861 75.449 105.718 79.9619 104.513 83.097C103.621 80.1017 102.549 76.7869 101.418 73.5786V73.5719C101.331 73.3323 101.252 73.0993 101.165 72.8597C100.566 71.1823 99.9536 69.5449 99.3412 68.0006C98.5158 65.9305 97.4042 63.8604 96.0463 61.9634C95.8599 61.6905 95.6669 61.4243 95.4606 61.1647C93.903 59.1279 92.0592 57.324 90.0158 55.9728C86.3881 53.5832 81.4558 52.6846 77.1226 52.3984C76.204 55.4935 73.6547 58.1094 70.6328 59.2344C67.6108 60.3526 64.1829 60.1729 61.1742 59.0214C58.1656 57.8632 55.7294 55.6733 53.6793 53.1838C47.5955 53.1838 41.0391 55.174 36.6127 59.3475C36.2532 59.6936 35.9071 60.0531 35.5876 60.4258C35.4278 60.6055 35.2747 60.7853 35.1283 60.9716C33.4576 63.0484 32.2728 65.5179 31.2877 68.0139C30.8084 69.2387 30.3691 70.4701 29.9697 71.7215C29.9031 71.9345 29.8366 72.1475 29.77 72.3671C28.6518 76.0081 27.8597 79.7423 27.2939 83.523C27.2606 83.7693 27.2207 84.0089 27.194 84.2552C26.6283 88.209 26.3088 92.2161 26.1157 96.2231C26.1024 96.4561 26.0891 96.6824 26.0825 96.9154C26.0026 98.6061 25.9427 100.297 25.8961 101.981C25.8428 103.858 25.8229 105.788 26.0758 107.645Z" fill="#18A86D"/>
<path d="M103.115 98.4264C101.484 98.6128 99.8803 98.473 98.2762 98.1402C96.652 97.8007 95.0612 97.3082 93.4304 97.002C91.7264 96.6825 90.069 96.6758 88.3783 97.0552C86.7742 97.408 85.2232 97.9671 83.6058 98.24C82.0881 98.493 80.6105 98.4064 79.1128 98.0736C77.5685 97.7342 76.0709 97.2083 74.52 96.8822C72.8626 96.5427 71.2917 96.576 69.6676 97.0685C68.1167 97.5411 66.619 98.2134 64.9816 98.3266C63.3974 98.4331 61.8199 98.0803 60.2823 97.7208C58.6848 97.3414 57.0606 96.9288 55.3966 97.0086C53.7192 97.0885 52.1217 97.6743 50.4843 97.9671C48.8402 98.26 47.2826 98.1002 45.6651 97.7541C43.9345 97.3814 42.2571 97.002 40.4866 97.2948C38.8824 97.5611 37.3248 98.1269 35.6807 98.1934C33.9967 98.26 32.3526 97.7674 30.7285 97.3814C29.1843 97.0153 27.6333 96.8888 26.0824 96.9154C26.0891 96.6825 26.1024 96.4562 26.1157 96.2232C26.6881 96.2032 27.2672 96.2165 27.8397 96.2565C29.5969 96.3763 31.2543 96.8622 32.965 97.2349C33.8303 97.4213 34.7089 97.5544 35.5942 97.5278C36.4529 97.5078 37.2982 97.3215 38.1369 97.1284C39.781 96.7424 41.3719 96.3696 43.0759 96.5826C44.7865 96.789 46.4439 97.3747 48.1679 97.4679C49.8919 97.5678 51.5293 97.0353 53.1934 96.6692C54.7975 96.3164 56.3551 96.2631 57.9859 96.5427C59.59 96.8156 61.1476 97.3082 62.765 97.5478C64.5289 97.814 66.1265 97.5677 67.8038 96.9953C69.3614 96.4695 70.8857 95.917 72.5497 95.9703C74.094 96.0168 75.5983 96.4362 77.0693 96.8555C78.6336 97.2948 80.2244 97.7541 81.8685 97.7408C83.5392 97.7275 85.15 97.215 86.7542 96.7757C88.3384 96.343 89.9425 96.0035 91.5999 96.1034C93.2507 96.1966 94.8615 96.6159 96.459 97.0219C98.0965 97.4346 99.7472 97.8473 101.445 97.854C103.255 97.8739 105.026 97.4546 106.783 97.0552C109.292 96.4828 112.008 95.9303 114.544 96.5826C114.511 96.7956 114.484 97.0153 114.451 97.2283C112.421 96.7091 110.151 97.002 108.147 97.4346C106.477 97.7941 104.813 98.2334 103.115 98.4264ZM31.0347 108.184C32.4991 108.67 33.8902 109.363 35.3812 109.775C36.9388 110.215 38.4631 110.148 40.0406 109.815C41.5316 109.502 43.0026 109.05 44.5269 108.917C45.9846 108.79 47.3891 109.076 48.7603 109.549C50.1182 110.022 51.4294 110.627 52.8273 110.973C53.5328 111.147 54.265 111.246 54.9972 111.213C55.8292 111.173 56.6413 110.973 57.4467 110.794C58.9643 110.461 60.4287 110.354 61.9729 110.567C63.4839 110.78 64.9616 111.193 66.4459 111.533C67.937 111.885 69.4679 112.165 71.0055 112.052C72.6629 111.939 74.2338 111.34 75.8579 111.053C79.0529 110.501 82.1081 111.652 85.2765 111.786C86.8807 111.859 88.3517 111.506 89.8493 110.967C91.2338 110.468 92.6184 109.902 94.1027 109.775C95.7202 109.636 97.2644 110.168 98.8353 110.414C100.533 110.687 102.197 110.394 103.841 109.975C106.33 109.343 109.039 108.484 111.582 109.256C111.482 109.462 111.369 109.662 111.249 109.862C109.339 109.336 107.129 109.802 105.265 110.295C103.701 110.701 102.13 111.153 100.499 111.193C98.9218 111.24 97.4308 110.747 95.8799 110.514C94.3024 110.275 92.838 110.601 91.3537 111.127C89.9558 111.619 88.5847 112.192 87.1136 112.385C83.9586 112.791 80.9033 111.539 77.7616 111.546C76.1241 111.553 74.5799 112.045 72.9957 112.405C71.5247 112.737 70.0803 112.817 68.5893 112.618C65.6206 112.218 62.7451 110.967 59.7165 111.113C58.139 111.186 56.648 111.779 55.0771 111.872C53.6859 111.959 52.3281 111.579 51.0301 111.107C49.6789 110.621 48.3609 110.022 46.9498 109.722C45.4255 109.396 43.9145 109.602 42.4102 109.948C40.9525 110.281 39.5014 110.701 38.0038 110.767C36.5194 110.834 35.1017 110.441 33.7238 109.922C32.326 109.389 30.9548 108.757 29.4838 108.457C28.3988 108.231 27.2806 108.171 26.1756 108.291C26.1423 108.078 26.1091 107.865 26.0758 107.645C27.7332 107.479 29.4172 107.652 31.0347 108.184ZM106.097 85.8394C104.4 86.0857 102.876 85.8128 101.291 85.2071C100.533 84.9209 99.7738 84.608 98.9751 84.4483C98.143 84.2885 97.291 84.3551 96.4657 84.5148C94.9014 84.8277 93.3971 85.4334 91.793 85.5066C90.1888 85.5732 88.8376 84.8676 87.4065 84.2552C85.7824 83.563 84.1782 83.5231 82.4609 83.8492C80.8634 84.1554 79.3058 84.648 77.6817 84.8011C76.011 84.9608 74.3935 84.6014 72.8027 84.1288C71.1852 83.6495 69.5611 83.0638 67.8571 82.9839C66.1132 82.9107 64.3958 83.3167 62.7051 83.7028C61.061 84.0822 59.397 84.4483 57.7063 84.4017C56.0156 84.3617 54.3516 83.9624 52.7141 83.583C51.0567 83.1969 49.3727 82.8108 47.662 82.8641C45.938 82.9173 44.3472 83.5563 42.7098 84.0223C41.1256 84.4682 39.5946 84.5881 37.9772 84.2486C36.3264 83.9091 34.7422 83.2435 33.0582 83.0904C31.2144 82.9107 29.5437 83.6029 27.8064 84.0955C27.6067 84.1554 27.4004 84.202 27.194 84.2552C27.2206 84.009 27.2606 83.7693 27.2939 83.5231C28.5453 83.1769 29.77 82.7243 31.048 82.5046C32.6788 82.2317 34.2497 82.5579 35.8205 82.9972C37.4846 83.4631 39.1553 83.9823 40.8993 83.7427C42.5766 83.5097 44.1342 82.7975 45.7783 82.4381C47.4024 82.0786 49.0399 82.1785 50.664 82.4647C52.3613 82.7709 54.0187 83.2568 55.7227 83.5364C57.4866 83.8292 59.2039 83.756 60.9545 83.4099C62.6452 83.0704 64.3026 82.5912 66.0133 82.3982C67.6907 82.2051 69.2948 82.4115 70.9056 82.8641C72.5564 83.33 74.1872 83.9624 75.8978 84.1354C77.6218 84.3152 79.2925 83.8891 80.9499 83.4964C82.4676 83.1436 84.0384 82.8108 85.6026 83.0305C87.2467 83.2635 88.6046 84.2419 90.1888 84.6679C91.8396 85.1139 93.4837 84.5814 95.0812 84.1621C96.5921 83.7627 98.0965 83.5097 99.6407 83.9224C101.311 84.3751 102.796 85.2537 104.573 85.2803C106.417 85.3136 108.194 84.7012 109.931 84.1554C112.001 83.5031 114.358 82.8974 116.528 83.37C116.494 83.5963 116.461 83.8159 116.428 84.0422C114.757 83.6695 112.847 83.9823 111.256 84.4483C109.545 84.9475 107.868 85.5865 106.097 85.8394ZM97.2178 73.7317C95.8599 74.0446 94.5287 74.5105 93.1309 74.6702C91.7464 74.83 90.4151 74.5305 89.0772 74.1843C87.7393 73.8449 86.3415 73.4788 84.9703 73.8515C83.7389 74.191 82.6739 74.9631 81.4691 75.3691C78.9464 76.2145 76.6833 74.7301 74.3536 73.998C73.0223 73.5786 71.7111 73.572 70.3465 73.8382C68.9953 74.1045 67.6774 74.5371 66.3128 74.7368C65.0016 74.9298 63.7369 74.8167 62.4589 74.4905C61.1809 74.1577 59.9495 73.6718 58.6515 73.4189C57.2936 73.146 56.0289 73.2857 54.7576 73.8449C53.5994 74.3574 52.4878 74.9964 51.2031 75.1362C48.5673 75.4224 46.171 73.8116 43.5484 73.9181C42.0974 73.9713 40.7462 74.6103 39.2884 74.6103C37.884 74.6103 36.5194 74.211 35.2015 73.7583C33.4842 73.1726 31.6271 72.4138 29.77 72.3672C29.8366 72.1475 29.9031 71.9345 29.9697 71.7215C30.8283 71.7615 31.687 71.9212 32.4924 72.1409C33.8569 72.5203 35.1682 73.0927 36.5327 73.4854C37.9905 73.9114 39.4282 74.0778 40.9259 73.7384C41.6314 73.5786 42.3237 73.3789 43.0492 73.2924C43.6949 73.2125 44.3472 73.2525 44.9929 73.3456C46.3175 73.552 47.5755 74.0179 48.8868 74.2975C50.2646 74.597 51.5559 74.5504 52.8606 73.9913C54.052 73.4788 55.1703 72.8065 56.4749 72.6467C59.1773 72.3139 61.6069 73.8981 64.2361 74.151C67.0517 74.4173 69.6543 72.8797 72.4565 72.9796C73.7545 73.0261 74.966 73.4854 76.1641 73.9647C77.3289 74.4306 78.547 74.9631 79.8317 74.9698C81.1962 74.9764 82.3344 74.2509 83.5326 73.6984C84.7307 73.1393 85.9155 72.9196 87.2334 73.106C88.6246 73.299 89.9558 73.8182 91.347 73.998C92.8247 74.191 94.2491 73.8316 95.6603 73.4455C97.0181 73.0794 98.3627 72.7599 99.7738 72.7599C100.24 72.7599 100.699 72.7932 101.165 72.8597C101.252 73.0994 101.331 73.3323 101.418 73.572C100.033 73.359 98.609 73.4122 97.2178 73.7317ZM92.4719 62.1765C91.3603 62.5758 90.2953 63.135 89.1305 63.3613C88.0056 63.5809 86.8607 63.5077 85.7358 63.3213C83.3728 62.9286 80.9965 62.0034 78.5803 62.4826C76.244 62.9486 74.1406 64.3131 71.6911 64.18C69.2682 64.0535 67.045 62.8021 64.6022 62.7888C62.146 62.7689 59.823 63.754 57.4068 64.0735C56.2619 64.2199 55.1303 64.1933 54.0054 63.9537C52.8872 63.7207 51.8155 63.3147 50.7438 62.922C49.6655 62.5292 48.5806 62.1299 47.449 61.9235C46.2575 61.7039 45.1193 61.8104 43.9611 62.1432C42.8096 62.476 41.6714 62.8754 40.4533 62.7689C39.3217 62.669 38.2634 62.2497 37.2184 61.8104C36.5261 61.5108 35.8338 61.2113 35.1283 60.9717C35.2747 60.7853 35.4278 60.6056 35.5876 60.4259C37.7508 61.198 39.7677 62.5159 42.1506 61.9701C43.3421 61.6905 44.467 61.2113 45.6984 61.1381C46.81 61.0782 47.9283 61.2978 48.9866 61.6173C51.2098 62.283 53.3531 63.4345 55.7161 63.501C58.1922 63.5743 60.5286 62.5891 62.9448 62.2497C64.1362 62.0766 65.3077 62.0899 66.4859 62.3295C67.6973 62.5758 68.8688 62.9952 70.0803 63.2747C71.3183 63.5543 72.5431 63.6075 73.7878 63.3014C74.966 63.0018 76.0776 62.5093 77.2358 62.1498C78.3607 61.797 79.4989 61.624 80.677 61.7039C81.8751 61.7904 83.0533 62.0766 84.2248 62.3362C85.4163 62.6024 86.6277 62.862 87.8525 62.8354C89.0839 62.8021 90.1955 62.3761 91.3204 61.9169C92.4054 61.4709 93.5169 61.0582 94.7084 61.0915C94.9614 61.0981 95.2143 61.1248 95.4606 61.1647C95.6669 61.4243 95.8599 61.6905 96.0463 61.9635C94.8216 61.6306 93.6501 61.7505 92.4719 62.1765ZM37.884 135.901C39.2419 136.327 40.5997 136.84 42.0441 136.5C43.3288 136.201 44.467 135.488 45.7184 135.082C48.5007 134.177 51.323 135.309 53.8923 136.347C56.5215 137.405 59.5035 138.411 62.1726 136.939C63.2709 136.334 64.276 135.628 65.5407 135.435C66.5658 135.275 67.6042 135.415 68.6026 135.688C70.7725 136.281 72.7295 137.459 74.9127 138.024C76.0243 138.311 77.1692 138.411 78.2941 138.138C79.5521 137.838 80.7037 137.212 81.8885 136.713C83.0666 136.227 84.2714 135.921 85.5494 135.994C86.8074 136.074 88.0255 136.427 89.2237 136.8C90.4484 137.186 91.6865 137.612 92.9711 137.758C94.329 137.911 95.587 137.632 96.8384 137.119C98.2562 136.533 99.7738 135.768 101.311 135.628C101.278 135.861 101.252 136.087 101.225 136.314C100.06 136.46 98.8486 136.966 97.8901 137.385C96.712 137.905 95.5138 138.391 94.2158 138.464C92.9911 138.53 91.773 138.257 90.6015 137.925C88.1786 137.226 85.7491 136.174 83.2064 136.939C81.995 137.306 80.8767 137.931 79.6919 138.391C78.6003 138.817 77.4621 139.043 76.2906 138.943C74.0873 138.75 72.0971 137.678 70.067 136.886C69.0818 136.5 68.0501 136.147 66.9851 136.054C65.8203 135.954 64.7619 136.221 63.7435 136.793C62.5787 137.445 61.5203 138.131 60.1691 138.304C58.8112 138.484 57.4334 138.244 56.1354 137.858C53.4263 137.053 50.8637 135.448 47.9682 135.409C46.5438 135.389 45.3257 135.921 44.0477 136.48C42.8695 136.999 41.678 137.405 40.3734 137.246C39.4016 137.126 38.483 136.786 37.5512 136.494C37.5578 136.267 37.5711 136.034 37.5778 135.808C37.6776 135.835 37.7841 135.868 37.884 135.901ZM98.6423 123.993C97.4375 124.313 96.3059 124.845 95.1211 125.211C93.9762 125.564 92.8247 125.697 91.6332 125.524C89.2436 125.185 87.0138 123.867 84.551 124.026C82.1081 124.186 79.9582 125.631 77.5286 125.897C75.1058 126.156 72.7428 125.298 70.4264 124.725C69.2349 124.432 68.0168 124.199 66.7788 124.233C65.4675 124.273 64.1961 124.652 62.9314 124.972C61.7134 125.278 60.4553 125.537 59.1973 125.431C57.9992 125.331 56.8676 124.945 55.7693 124.492C54.6378 124.033 53.5328 123.501 52.3613 123.141C51.1033 122.762 49.792 122.622 48.4807 122.735C47.1362 122.848 45.9047 123.274 44.6867 123.82C43.6283 124.293 42.5766 124.672 41.4051 124.625C40.4466 124.592 39.5214 124.346 38.5895 124.1C38.6162 123.887 38.6428 123.667 38.6694 123.454C38.9157 123.52 39.162 123.58 39.4016 123.64C40.4932 123.907 41.6448 124.106 42.7563 123.833C44.0011 123.534 45.106 122.828 46.3307 122.469C48.8601 121.723 51.4428 122.01 53.859 122.975C55.0172 123.434 56.1354 123.98 57.3202 124.359C58.5783 124.765 59.843 124.885 61.1542 124.672C62.4589 124.459 63.7169 124.033 65.0149 123.78C66.233 123.54 67.4444 123.514 68.6758 123.694C71.1519 124.053 73.5016 125.098 76.0043 125.258C77.2757 125.338 78.4871 125.111 79.6919 124.712C80.8701 124.326 82.0149 123.833 83.2264 123.56C84.4112 123.294 85.5827 123.301 86.7675 123.554C87.9789 123.807 89.1371 124.246 90.3219 124.572C91.5534 124.905 92.7981 125.071 94.0561 124.798C95.2942 124.539 96.4457 124 97.6438 123.6C99.1282 123.101 100.672 122.955 102.157 123.241C102.15 123.467 102.143 123.694 102.137 123.927C100.999 123.674 99.7938 123.687 98.6423 123.993Z" fill="#18C880"/>
<path d="M94.5614 67.3823C95.012 68.6423 95.3914 69.923 95.7422 71.213C96.097 69.8964 96.1941 68.5258 96.0191 67.162C95.9958 66.9822 96.1888 66.8311 96.3519 66.8292C96.5509 66.8272 96.6621 66.9842 96.6847 67.162C96.9117 68.9279 96.6954 70.737 96.0603 72.4004L96.059 72.4024C96.4138 73.8016 96.7353 75.2087 97.0415 76.6192C97.7211 79.7489 98.3381 82.892 98.8933 86.0458C100.004 92.3559 100.866 98.7106 101.477 105.089C101.823 108.709 102.088 112.337 102.273 115.969C102.295 116.397 101.629 116.396 101.607 115.969C101.282 109.572 100.706 103.189 99.8784 96.8375C99.051 90.4895 97.968 84.1734 96.6388 77.9112C95.8986 74.4213 95.1218 70.9247 93.919 67.56C93.7753 67.1553 94.4183 66.9809 94.5614 67.3823Z" fill="#59AA74"/>
<path d="M102.313 89.1515C103.255 86.0544 104.244 82.9725 105.283 79.9066C105.42 79.5033 106.063 79.6763 105.925 80.0837C104.886 83.1489 103.896 86.2314 102.954 89.3286C102.831 89.7373 102.188 89.5629 102.313 89.1515Z" fill="#59AA74"/>
<path d="M35.155 100.226C36.7225 99.0686 38.4711 98.2066 40.253 97.4325C41.4238 96.9233 42.602 96.4321 43.7815 95.9422C43.7815 95.9395 43.7808 95.9375 43.7808 95.9349C44.505 90.1719 44.8684 84.3656 44.8598 78.5574C44.8571 76.894 44.8232 75.2313 44.7613 73.5692C44.7453 73.1405 45.4109 73.1419 45.4269 73.5692C45.4675 74.6535 45.4828 75.7385 45.4981 76.8241C46.0932 75.5534 46.4646 74.1849 46.5758 72.7811C46.609 72.3571 47.2753 72.3531 47.2414 72.7811C47.0916 74.6775 46.5198 76.5146 45.5533 78.154C45.544 78.17 45.5307 78.178 45.5201 78.1913C45.538 82.4573 45.3623 86.7239 44.9822 90.9746C44.8425 92.5369 44.6734 94.0958 44.481 95.652C44.9117 95.4729 45.3424 95.2945 45.7723 95.1148C49.5258 93.5446 53.2826 91.9697 57.1366 90.6591C59.3338 89.9123 61.561 89.2553 63.8228 88.7328C64.2395 88.6363 64.4178 89.2779 63.9998 89.3745C60.0633 90.2837 56.24 91.6063 52.4832 93.0793C48.6758 94.5723 44.9037 96.1678 41.1416 97.77C39.1713 98.6094 37.2231 99.5239 35.4931 100.801C35.1456 101.056 34.8135 100.478 35.155 100.226Z" fill="#59AA74"/>
<path d="M39.5722 115.821C47.0198 111.347 54.3384 106.649 61.4859 101.708C63.3989 100.386 65.2813 99.0087 66.8954 97.324C67.1923 97.0139 67.6629 97.4851 67.366 97.7946C65.9582 99.2637 64.3434 100.508 62.6853 101.679C60.9188 102.928 59.1222 104.135 57.325 105.339C53.6654 107.792 49.9666 110.187 46.2304 112.522C44.1344 113.832 42.027 115.123 39.9083 116.396C39.5402 116.617 39.2047 116.041 39.5722 115.821Z" fill="#59AA74"/>
<path d="M50.8091 54.035C51.8594 56.1404 53.6034 57.7672 55.511 59.0984C57.5345 60.5102 59.7471 61.7104 62.1047 62.4579C64.4344 63.1967 66.9165 63.4696 69.3314 63.0123C71.6724 62.569 73.9029 61.5067 75.6422 59.8666C77.5013 58.114 78.7567 55.7876 79.1554 53.2616C79.222 52.8396 79.8636 53.0186 79.797 53.4386C79.0282 58.305 75.2222 62.1543 70.5269 63.421C65.4096 64.8015 60.197 62.9637 55.9058 60.1654C53.6253 58.6784 51.4687 56.8453 50.234 54.3705C50.0436 53.9884 50.6174 53.651 50.8091 54.035Z" fill="#59AA74"/>
<path d="M38.3527 138.016C39.393 138.662 40.4627 139.259 41.5517 139.815C41.8159 133.585 42.3471 127.366 43.1798 121.184C43.4494 119.183 43.7489 117.186 44.0771 115.194C44.1463 114.773 44.7879 114.951 44.7187 115.371C43.5619 122.395 42.7724 129.478 42.3598 136.586C42.2912 137.769 42.2359 138.953 42.188 140.138C44.549 141.295 47.0125 142.241 49.5498 142.948C53.5496 144.062 57.7097 144.698 61.824 145.222C69.7322 146.229 77.8203 146.48 85.7113 145.187C90.133 144.463 94.4795 143.248 98.5871 141.45C98.9758 141.279 99.3153 141.853 98.9233 142.024C91.5262 145.262 83.4728 146.611 75.4307 146.72C71.3557 146.775 67.2794 146.523 63.2318 146.057C59.0823 145.579 54.9048 144.96 50.8438 143.972C47.8478 143.242 44.9377 142.192 42.1627 140.858C42.1407 141.45 42.1161 142.043 42.0995 142.636C42.0875 143.063 41.4219 143.065 41.4339 142.636C41.4538 141.937 41.4944 141.241 41.5211 140.542C40.3256 139.943 39.1534 139.296 38.0165 138.589C37.6538 138.365 37.9879 137.789 38.3527 138.016Z" fill="#59AA74"/>
<path d="M52.5246 130.432C58.7702 129.359 64.6343 126.67 69.759 122.977C75.0314 119.177 79.4744 114.315 83.1707 108.991C85.2794 105.955 87.1544 102.761 88.8518 99.478C89.0488 99.0973 89.6232 99.4335 89.4262 99.8142C86.387 105.691 82.76 111.3 78.2936 116.199C73.9444 120.97 68.7719 125.036 62.921 127.803C59.6748 129.338 56.2421 130.465 52.701 131.073C52.2823 131.145 52.1026 130.504 52.5246 130.432Z" fill="#59AA74"/>
<path d="M65.624 132.405C72.207 132.53 78.7681 130.586 84.2542 126.952C85.8217 125.913 87.2901 124.738 88.6506 123.44C88.9608 123.144 89.4321 123.614 89.1212 123.91C84.2449 128.563 77.9334 131.651 71.2758 132.685C69.4061 132.975 67.5157 133.106 65.6233 133.071C65.196 133.062 65.1947 132.397 65.624 132.405Z" fill="#59AA74"/>
<path d="M64.1082 88.9244C63.6423 90.3941 63.6696 92.0482 64.1568 93.5112C64.644 94.9743 65.6045 96.2749 66.8592 97.1715C69.2082 96.3774 71.1559 94.4804 72.0005 92.1487C72.4898 92.7578 73.2027 93.1977 73.9695 93.3468C74.0167 93.6444 73.9681 93.9346 74.0154 94.2315C73.5048 94.2235 72.9038 94.4837 72.5703 94.8711C72.2368 95.2585 72.0864 95.7963 72.1709 96.3002C72.2342 96.677 72.6136 96.8653 72.9843 96.9572C73.608 96.7801 74.1898 96.5185 74.7589 96.207C75.3273 95.8955 75.8379 95.4362 76.0895 94.8385C76.3298 94.2667 76.3657 93.5365 76.367 92.9162C76.4915 93.4014 76.7158 93.8387 76.841 94.324C76.9614 94.7939 76.7078 95.3084 76.9142 95.7471C77.1205 96.1864 77.5665 96.5392 78.0504 96.5152C78.5609 96.4899 78.9796 96.0586 79.1513 95.5773C79.3231 95.0954 79.2998 94.5689 79.2738 94.0584C79.2492 93.5731 79.2618 93.0253 79.2485 92.5401C79.0582 92.9395 79.5734 93.5219 80.01 93.5984C80.446 93.675 80.8873 93.4074 81.1362 93.0413C81.3852 92.6752 81.4777 92.2266 81.5416 91.7886C81.7999 90.0267 81.6854 88.2195 81.3007 86.4809C81.0484 85.3414 79.5194 84.9267 78.3872 84.6471C79.0901 83.8191 79.6818 82.814 80.028 81.7843C81.1642 81.2924 82.0535 80.3492 82.5474 79.2136C83.6909 78.9314 84.6987 78.1719 85.3051 77.1628C85.4508 76.9205 85.576 76.6543 85.5846 76.3721C85.5933 76.0898 85.4608 75.7876 85.2059 75.6658C84.935 75.536 84.6148 75.6345 84.3326 75.7384C76.8057 78.5047 70.206 83.7166 64.1082 88.9244Z" fill="#D47F6C"/>
<path d="M74.492 87.7874C75.3673 88.29 76.2399 88.8697 76.5261 89.8968C76.6812 90.4519 76.7078 91.0556 76.7271 91.6281C76.7491 92.2771 76.7218 92.9254 76.6526 93.5704C76.6073 93.9917 75.941 93.9964 75.987 93.5704C76.1028 92.4941 76.1573 91.3199 75.9284 90.2542C75.7234 89.3004 74.9479 88.8172 74.1558 88.3619C73.7844 88.1489 74.1192 87.5738 74.492 87.7874Z" fill="#BA6450"/>
<path d="M77.1818 86.3371C77.7003 86.5547 78.2195 86.7771 78.6508 87.1465C79.1087 87.5392 79.361 88.089 79.4529 88.6781C79.5541 89.3244 79.5454 89.988 79.5567 90.6403C79.5694 91.3812 79.5687 92.1227 79.5561 92.8635C79.5487 93.2915 78.8831 93.2929 78.8904 92.8635C78.9111 91.6361 78.9344 90.3921 78.8432 89.1666C78.8046 88.6495 78.6921 88.1236 78.316 87.7422C77.9579 87.3801 77.4667 87.1718 77.0047 86.9781C76.616 86.8157 76.787 86.1713 77.1818 86.3371Z" fill="#BA6450"/>
<path d="M76.0715 84.0275C76.1221 83.8424 76.3038 83.7619 76.4809 83.7952C77.7289 84.0308 78.9383 84.4129 80.1012 84.9221C80.2656 84.9939 80.3035 85.2349 80.2203 85.3773C80.1211 85.5471 79.9301 85.569 79.765 85.4965C78.6568 85.0113 77.4919 84.6605 76.3038 84.4368C76.1274 84.4035 76.0269 84.1905 76.0715 84.0275Z" fill="#BA6450"/>
<path d="M103.811 69.3244H113.842C115.031 69.3244 116.233 68.3606 116.528 67.1718L122.387 43.4922C122.681 42.3034 121.956 41.3396 120.767 41.3396H110.737C109.548 41.3396 108.345 42.3034 108.051 43.4922L102.191 67.1718C101.897 68.3606 102.623 69.3244 103.811 69.3244Z" fill="#25262B"/>
<path d="M112.07 44.723C111.891 45.4472 111.159 46.0349 110.434 46.0349C109.71 46.0349 109.268 45.4478 109.447 44.723C109.626 43.9981 110.359 43.411 111.083 43.411C111.808 43.411 112.25 43.9981 112.07 44.723Z" fill="#636674"/>
<path d="M114.915 44.7229C114.79 45.2295 114.277 45.6402 113.77 45.6402C113.263 45.6402 112.954 45.2295 113.08 44.7229C113.205 44.2164 113.717 43.8051 114.224 43.8051C114.732 43.8051 115.04 44.2157 114.915 44.7229Z" fill="#636674"/>
<path d="M108.141 69.3252C108.274 70.3569 108.56 71.3686 109.066 72.3138C111.482 74.1243 115.023 74.6102 117.952 73.8714C120.275 69.8111 123.097 65.3514 123.956 61.4708C121.912 61.3843 119.856 61.5041 117.845 61.8502L116.528 67.1685C116.235 68.36 115.03 69.3252 113.838 69.3252H108.141Z" fill="#D47F6C"/>
<path d="M111.517 60.0782C111.994 59.8572 112.521 59.9464 113.014 60.0609C113.66 60.2113 114.305 60.3704 114.951 60.5248C115.251 60.5967 115.552 60.6686 115.852 60.7405C115.585 60.6287 115.319 60.5162 115.052 60.4044C114.312 60.0935 113.572 59.7827 112.831 59.4718C112.289 59.2435 111.721 59.0199 111.303 58.5892C110.944 58.2191 110.694 57.6959 110.781 57.1714C110.866 56.6509 111.265 56.3114 111.796 56.356C112.491 56.4146 113.207 56.6622 113.878 56.8459C114.139 56.9178 114.396 57.0063 114.656 57.0842C114.433 56.9791 114.211 56.8719 113.987 56.7681C113.357 56.4752 112.656 56.2329 112.075 55.8502C111.641 55.5639 111.296 55.1087 111.329 54.5648C111.36 54.0483 111.789 53.6802 112.272 53.5757C112.91 53.4379 113.61 53.7262 114.217 53.8912C114.908 54.0789 115.598 54.2726 116.283 54.4843C116.716 54.6181 117.145 54.7619 117.572 54.913C116.929 54.3785 116.339 53.7641 115.595 53.368C114.842 52.9673 114.052 52.8935 113.509 52.1666C113.051 51.5535 112.906 50.7561 113.115 50.0213C113.166 49.8442 113.348 49.747 113.524 49.789C115.248 50.1997 116.922 50.7974 118.514 51.5742C119.268 51.9423 120.035 52.3357 120.723 52.8176C121.43 53.3121 121.817 53.9471 122.167 54.7213C122.906 56.3507 123.666 58.0148 123.993 59.7853C124.15 60.6313 124.07 61.3808 123.712 62.1649C123.399 62.8485 122.948 63.4769 122.41 64.0014C121.407 64.9785 119.503 66.0129 118.363 64.8035C117.181 64.4334 115.999 64.0633 114.816 63.6939C113.727 63.3531 112.468 63.0516 111.537 62.36C110.765 61.7849 110.481 60.5581 111.517 60.0782Z" fill="#D47F6C"/>
<path d="M116.659 64.2424C116.703 64.082 116.9 63.9449 117.068 64.0101C118.081 64.4008 119.123 64.7103 120.185 64.936C120.36 64.9732 120.463 65.1796 120.417 65.3453C120.367 65.527 120.184 65.6156 120.008 65.5776C118.946 65.352 117.904 65.0425 116.891 64.6518C116.724 64.5872 116.608 64.4281 116.659 64.2424Z" fill="#BA6450"/>
<path d="M115.716 60.3312C117.291 60.933 118.871 61.5234 120.454 62.1018C120.854 62.2476 120.681 62.8912 120.277 62.7435C118.694 62.165 117.114 61.5746 115.539 60.9729C115.143 60.8218 115.316 60.1775 115.716 60.3312Z" fill="#BA6450"/>
<path d="M114.683 56.8706C115.787 57.1722 116.918 57.4304 118.005 57.7939C119.057 58.146 120.003 58.7703 120.957 59.3228C121.328 59.5371 120.993 60.1129 120.621 59.8979C119.687 59.3568 118.759 58.7324 117.723 58.4022C116.665 58.0648 115.577 57.8058 114.506 57.5136C114.093 57.3998 114.268 56.7568 114.683 56.8706Z" fill="#BA6450"/>
<path d="M117.227 54.8091C117.27 54.6507 117.469 54.5096 117.637 54.5768C119.072 55.1526 120.777 55.3902 121.809 56.6609C121.923 56.8 121.946 56.9951 121.809 57.1315C121.692 57.2487 121.453 57.272 121.339 57.1315C120.384 55.9567 118.787 55.751 117.46 55.2185C117.292 55.1513 117.175 54.9962 117.227 54.8091Z" fill="#BA6450"/>
<path opacity="0.15" d="M37.5512 136.493C37.5578 136.267 37.5711 136.034 37.5778 135.808C37.7641 131.887 38.1036 127.993 38.5895 124.099C38.6162 123.886 38.6428 123.667 38.6694 123.454C38.8824 121.776 39.1154 120.106 39.375 118.435C42.8296 121.031 46.577 123.241 50.5109 125.038C55.0771 127.128 59.8962 128.652 64.8218 129.591C69.6276 130.509 74.5533 130.889 79.4323 130.623C84.0185 130.37 88.598 129.538 92.9179 127.96C96.2327 126.749 99.3877 125.071 102.163 122.895C102.163 123.008 102.157 123.128 102.157 123.241C102.15 123.467 102.143 123.693 102.137 123.926C102.03 127.834 101.757 131.747 101.311 135.628C101.278 135.861 101.251 136.087 101.225 136.314C100.892 139.096 100.466 141.865 99.9402 144.601C92.8313 148.781 84.2647 149.473 76.0243 149.813C69.3414 150.085 62.6119 150.185 55.9956 149.22C49.3727 148.255 42.956 146.198 37.4247 142.431C37.4247 140.441 37.4646 138.464 37.5512 136.493Z" fill="#522840"/>
<path d="M118.193 31.9968H107.437C103.645 31.9968 100.543 28.8944 100.543 25.1023C100.543 21.3102 103.645 18.2077 107.437 18.2077H118.193C121.985 18.2077 125.088 21.3102 125.088 25.1023C125.088 28.8944 121.985 31.9968 118.193 31.9968Z" fill="#59AA74" fill-opacity="0.1"/>
<path d="M107.437 31.9969L110.763 36.2502V31.9969H107.437Z" fill="#59AA74" fill-opacity="0.1"/>
</svg>
